<svg width="30" height="31" viewBox="0 0 30 31" fill="none" xmlns="http://www.w3.org/2000/svg">
    <path d="M14.8857 0.543091C11.04 0.543091 7.35191 2.12344 4.63263 4.93649C1.91336 7.74953 0.385681 11.5648 0.385681 15.5431C0.385681 19.5213 1.91336 23.3366 4.63263 26.1497C7.35191 28.9627 11.04 30.5431 14.8857 30.5431C18.7313 30.5431 22.4195 28.9627 25.1387 26.1497C27.858 23.3366 29.3857 19.5213 29.3857 15.5431C29.3857 11.5648 27.858 7.74953 25.1387 4.93649C22.4195 2.12344 18.7313 0.543091 14.8857 0.543091ZM2.17401 16.6764H6.2179C6.28235 18.1931 6.48696 19.6998 6.83013 21.1764H3.35013C2.70118 19.7612 2.30284 18.2371 2.17401 16.6764ZM15.9812 7.67642V2.52642C17.5338 3.1368 18.8096 4.3258 19.5579 5.85976C19.8882 6.43809 20.1798 7.03976 20.4279 7.65976L15.9812 7.67642ZM21.169 9.92642C21.5428 11.3981 21.7651 12.9064 21.8296 14.4264H15.9812V9.92642H21.169ZM13.7901 2.52642V7.67642H9.34346C9.59199 7.05592 9.88272 6.45441 10.2135 5.87642C10.9585 4.33618 12.2347 3.14086 13.7901 2.52642ZM13.7901 9.92642V14.4264H7.9579C8.02235 12.9064 8.24468 11.3981 8.61846 9.92642H13.7901ZM6.2179 14.4098H2.17401C2.30284 12.8491 2.70118 11.325 3.35013 9.90976H6.83013C6.4863 11.3858 6.28127 12.8928 6.2179 14.4098ZM7.9579 16.6764H13.7901V21.1764H8.61846C8.24474 19.7049 8.02331 18.1964 7.9579 16.6764ZM13.8062 23.3431V28.4931C12.2536 27.8827 10.9778 26.6937 10.2296 25.1598C9.89883 24.5818 9.6081 23.9803 9.35957 23.3598L13.8062 23.3431ZM15.9812 28.4931V23.4264H20.4279C20.1794 24.0469 19.8886 24.6484 19.5579 25.2264C18.8096 26.7604 17.5338 27.9494 15.9812 28.5598V28.4931ZM15.9812 21.0931V16.5931H21.8135C21.7481 18.1131 21.5266 19.6215 21.1529 21.0931H15.9812ZM23.5696 16.5931H27.6135C27.4846 18.1538 27.0863 19.6779 26.4373 21.0931H22.9412C23.2796 19.6431 23.4842 18.1648 23.5535 16.6764L23.5696 16.5931ZM23.5696 14.3431C23.4958 12.8536 23.2854 11.3747 22.9412 9.92642H26.4212C27.0705 11.3431 27.4685 12.8664 27.5973 14.4264L23.5696 14.3431ZM25.1807 7.67642H22.2968C21.775 6.16026 21.0187 4.7418 20.0573 3.47642C22.0622 4.40739 23.8036 5.85318 25.1162 7.67642H25.1807ZM9.71401 3.47642C8.7527 4.7418 7.99637 6.16026 7.47457 7.67642H4.65513C5.96773 5.85318 7.70918 4.40739 9.71401 3.47642ZM4.63901 23.4764H7.47457C7.99637 24.9926 8.7527 26.411 9.71401 27.6764C7.70363 26.7314 5.96165 25.268 4.65513 23.4264L4.63901 23.4764ZM20.0412 27.6764C21.0026 26.411 21.7589 24.9926 22.2807 23.4764H25.1162C23.7956 25.2752 22.0549 26.6975 20.0573 27.6098L20.0412 27.6764Z" fill="#4D954C" fill-opacity="0.5"/>
</svg>
