<svg width="31" height="31" viewBox="0 0 31 31" fill="none" xmlns="http://www.w3.org/2000/svg">
    <path d="M19.9901 0.543091H10.7813C2.37781 0.543091 0.385681 2.53522 0.385681 10.9387V20.1475C0.385681 28.551 2.37781 30.5431 10.7813 30.5431H19.9901C28.3936 30.5431 30.3857 28.551 30.3857 20.1475V10.9387C30.3857 2.53522 28.3739 0.543091 19.9901 0.543091ZM24.6043 21.9437H22.4266C21.6016 21.9437 21.3475 21.2893 19.8635 19.7856C18.5745 18.536 18.0036 18.37 17.6858 18.37C17.2367 18.37 17.1092 18.4966 17.1092 19.1125V21.0803C17.1092 21.6081 16.9433 21.9249 15.5465 21.9249C13.2365 21.9249 10.6735 20.5281 8.87635 17.9257C6.16613 14.112 5.42459 11.2556 5.42459 10.665C5.42459 10.3472 5.55114 10.05 6.16144 10.05H8.34387C8.89604 10.05 9.10603 10.304 9.32071 10.8946C10.3997 14.0099 12.1969 16.7388 12.9384 16.7388C13.2122 16.7388 13.3387 16.6123 13.3387 15.9139V12.6965C13.2553 11.2124 12.4744 11.0849 12.4744 10.5581C12.4744 10.304 12.6844 10.05 13.0209 10.05H16.453C16.917 10.05 17.0877 10.304 17.0877 10.8506V15.1911C17.0877 15.6598 17.2977 15.8257 17.4242 15.8257C17.698 15.8257 17.9323 15.6598 18.4395 15.1517C20.0069 13.3939 21.13 10.6837 21.13 10.6837C21.2763 10.3659 21.5303 10.0687 22.0825 10.0687H24.2649C24.9193 10.0687 25.0655 10.4053 24.9193 10.874C24.6455 12.1434 21.9747 15.9129 21.9747 15.9129C21.745 16.2935 21.6569 16.4595 21.9747 16.8841C22.2091 17.2019 22.9712 17.861 23.4784 18.4516C24.4112 19.5109 25.1283 20.3997 25.3196 21.0146C25.5343 21.6249 25.2174 21.9427 24.6015 21.9427L24.6043 21.9437Z" fill="#4D954C" fill-opacity="0.5"/>
</svg>
