<svg width="31" height="31" viewBox="0 0 31 31" fill="none" xmlns="http://www.w3.org/2000/svg">
    <path d="M30.3857 7.36809C30.3688 6.72095 30.3188 6.0751 30.2357 5.43309C30.1237 4.87078 29.937 4.32595 29.6807 3.81309C29.4126 3.25675 29.0525 2.74963 28.6157 2.31309C28.1748 1.8814 27.6686 1.52198 27.1157 1.24809C26.6021 0.996757 26.0573 0.815151 25.4957 0.708091C24.8598 0.61284 24.2185 0.557731 23.5757 0.543091H7.21068C6.56354 0.559945 5.91769 0.610011 5.27568 0.693091C4.71337 0.805093 4.16854 0.991746 3.65568 1.24809C3.09934 1.5162 2.59222 1.87625 2.15568 2.31309C1.72399 2.75396 1.36457 3.26018 1.09068 3.81309C0.839348 4.32664 0.657741 4.87145 0.550681 5.43309C0.45543 6.06899 0.400321 6.71026 0.385681 7.35309V23.7181C0.402536 24.3652 0.452601 25.0111 0.535681 25.6531C0.647684 26.2154 0.834336 26.7602 1.09068 27.2731C1.35879 27.8294 1.71884 28.3365 2.15568 28.7731C2.59655 29.2048 3.10277 29.5642 3.65568 29.8381C4.16923 30.0894 4.71405 30.271 5.27568 30.3781C5.91158 30.4733 6.55285 30.5285 7.19568 30.5431H23.5607C24.2078 30.5262 24.8537 30.4762 25.4957 30.3931C26.058 30.2811 26.6028 30.0944 27.1157 29.8381C27.672 29.57 28.1791 29.2099 28.6157 28.7731C29.0474 28.3322 29.4068 27.826 29.6807 27.2731C29.932 26.7595 30.1136 26.2147 30.2207 25.6531C30.3159 25.0172 30.371 24.3759 30.3857 23.7331V7.36809ZM15.7307 26.0431C13.9293 26.0342 12.1594 25.5698 10.5857 24.6931L4.88568 26.1931L6.38568 20.6131C5.41835 18.9878 4.90066 17.1344 4.88568 15.2431C4.89165 13.1175 5.52649 11.0412 6.71022 9.27565C7.89396 7.51014 9.57366 6.13439 11.5378 5.32166C13.5019 4.50894 15.6626 4.2956 17.7477 4.7085C19.8328 5.1214 21.7492 6.14208 23.2553 7.642C24.7615 9.14191 25.7901 11.054 26.2117 13.1374C26.6333 15.2208 26.4289 17.3823 25.6244 19.3498C24.8198 21.3173 23.4511 23.0027 21.6905 24.1938C19.9299 25.3848 17.8562 26.0283 15.7307 26.0431ZM15.7157 6.18309C14.1254 6.20129 12.5833 6.80557 11.218 7.6212C9.8527 8.43683 8.7279 9.59968 7.95813 10.9914C7.18835 12.3831 6.80111 13.9539 6.83581 15.5439C6.87051 17.1339 7.32592 18.6863 8.15568 20.0431L8.36568 20.3881L7.46568 23.6731L10.8857 22.7431L11.2157 22.9381C12.58 23.7417 14.1323 24.1712 15.7157 24.1831C18.1026 24.1831 20.3918 23.2349 22.0796 21.5471C23.7675 19.8592 24.7157 17.57 24.7157 15.1831C24.7157 12.7961 23.7675 10.507 22.0796 8.81913C20.3918 7.1313 18.1026 6.18309 15.7157 6.18309ZM20.9807 19.1281C20.7842 19.4558 20.5212 19.7386 20.2085 19.9582C19.8959 20.1779 19.5406 20.3294 19.1657 20.4031C18.6055 20.5055 18.0288 20.4694 17.4857 20.2981C16.9747 20.1383 16.4738 19.948 15.9857 19.7281C14.1313 18.7976 12.5498 17.4022 11.3957 15.6781C10.7685 14.8793 10.388 13.9149 10.3007 12.9031C10.2917 12.4828 10.3713 12.0653 10.5341 11.6777C10.6969 11.29 10.9393 10.941 11.2457 10.6531C11.3359 10.5508 11.4466 10.4685 11.5707 10.4117C11.6947 10.3548 11.8293 10.3247 11.9657 10.3231H12.3857C12.5507 10.3231 12.7757 10.3231 12.9857 10.7881C13.1957 11.2531 13.7507 12.6481 13.8257 12.7831C13.8625 12.8551 13.8818 12.9347 13.8818 13.0156C13.8818 13.0964 13.8625 13.1761 13.8257 13.2481C13.7594 13.4111 13.6683 13.5629 13.5557 13.6981C13.4207 13.8631 13.2707 14.0581 13.1507 14.1781C13.0307 14.2981 12.8807 14.4481 13.0307 14.7181C13.4388 15.4069 13.944 16.0333 14.5307 16.5781C15.1696 17.1426 15.9 17.5941 16.6907 17.9131C16.9607 18.0481 17.1257 18.0331 17.2757 17.9131C17.4257 17.7931 17.9507 17.1331 18.1307 16.8631C18.3107 16.5931 18.4907 16.6381 18.7307 16.7281C18.9707 16.8181 20.3057 17.4631 20.5757 17.5981C20.8457 17.7331 21.0107 17.7931 21.0857 17.9131C21.1507 18.3057 21.1146 18.7084 20.9807 19.0831V19.1281Z" fill="#4D954C" fill-opacity="0.5"/>
</svg>
