<svg width="47" height="47" viewBox="0 0 47 47" fill="none" xmlns="http://www.w3.org/2000/svg">
    <path fill-rule="evenodd" clip-rule="evenodd" d="M12.7006 36.0889C20.7434 34.9139 26.2812 35.015 34.3347 36.1301C34.9179 36.2146 35.4508 36.5073 35.835 36.9542C36.2193 37.401 36.4288 37.9718 36.425 38.5611C36.425 39.1251 36.2311 39.6727 35.881 40.1004C35.2707 40.8461 34.6454 41.5794 34.0057 42.3H37.1088C37.3039 42.0673 37.5001 41.83 37.6987 41.5891C38.3956 40.7344 38.7759 39.6652 38.775 38.5623C38.775 36.1829 37.0383 34.1326 34.6566 33.8036C26.4128 32.6626 20.6506 32.5534 12.361 33.7648C9.95458 34.1161 8.22498 36.1982 8.22498 38.594C8.22498 39.6574 8.5716 40.709 9.22843 41.5609C9.4223 41.8124 9.61383 42.0591 9.80418 42.3012H12.8322C12.2369 41.5886 11.6564 40.8638 11.0908 40.1274C10.7547 39.6866 10.5734 39.1472 10.575 38.5929C10.575 37.3274 11.4844 36.2664 12.7006 36.0889ZM23.5 24.675C24.4258 24.675 25.3426 24.4926 26.1979 24.1383C27.0532 23.7841 27.8304 23.2648 28.4851 22.6101C29.1397 21.9554 29.659 21.1783 30.0133 20.3229C30.3676 19.4676 30.55 18.5508 30.55 17.625C30.55 16.6992 30.3676 15.7824 30.0133 14.9271C29.659 14.0717 29.1397 13.2945 28.4851 12.6399C27.8304 11.9852 27.0532 11.4659 26.1979 11.1116C25.3426 10.7574 24.4258 10.575 23.5 10.575C21.6302 10.575 19.837 11.3178 18.5149 12.6399C17.1927 13.962 16.45 15.7552 16.45 17.625C16.45 19.4948 17.1927 21.288 18.5149 22.6101C19.837 23.9322 21.6302 24.675 23.5 24.675ZM23.5 27.025C25.993 27.025 28.3839 26.0346 30.1468 24.2718C31.9096 22.509 32.9 20.118 32.9 17.625C32.9 15.132 31.9096 12.741 30.1468 10.9782C28.3839 9.21535 25.993 8.225 23.5 8.225C21.0069 8.225 18.616 9.21535 16.8532 10.9782C15.0903 12.741 14.1 15.132 14.1 17.625C14.1 20.118 15.0903 22.509 16.8532 24.2718C18.616 26.0346 21.0069 27.025 23.5 27.025Z" fill="#4D954C"/>
    <path fill-rule="evenodd" clip-rule="evenodd" d="M23.5 44.65C35.1807 44.65 44.65 35.1807 44.65 23.5C44.65 11.8193 35.1807 2.35 23.5 2.35C11.8193 2.35 2.35 11.8193 2.35 23.5C2.35 35.1807 11.8193 44.65 23.5 44.65ZM23.5 47C36.479 47 47 36.479 47 23.5C47 10.521 36.479 0 23.5 0C10.521 0 0 10.521 0 23.5C0 36.479 10.521 47 23.5 47Z" fill="#4D954C"/>
</svg>
